<svg xmlns="http://www.w3.org/2000/svg" fill="none" viewBox="0 0 1280 400">
  <path fill="current" stroke="current" fill-rule="evenodd" clip-rule="evenodd" d="M65.182 95.162c0-25.955 22.283-46.75 49.45-46.75h146.45c27.167 0 49.451 20.795 49.451 46.75v41.879h-2.5v2.493H161.566v10.339h86.373v91.129H65.182V95.162Zm240.351 39.372V95.162c0-22.918-19.762-41.75-44.451-41.75h-146.45c-24.689 0-44.45 18.832-44.45 41.75v140.84h172.757v-81.129h-86.373v-20.339h148.967ZM65.182 250.042h97.635v83.871c0 7.398-6.325 13.153-13.803 13.153H65.182v-97.024Zm5 5v87.024h78.832c5 0 8.803-3.791 8.803-8.153v-78.871H70.182ZM778.92 49.195h-2.5v91.129h57.582v10.339H776.42v91.129h96.388v13.876H776.42v91.129h173.995V154.2h-20.028V95.945c0-25.955-22.284-46.75-49.451-46.75H778.921Zm2.5 86.129V54.195h99.516c24.689 0 44.451 18.832 44.451 41.75V159.2h20.028v182.597H781.421v-81.129h96.388v-23.876h-96.388v-81.129h57.582v-20.339h-57.582ZM666.723 49.195h97.635V346.79h-83.832c-7.479 0-13.803-5.754-13.803-13.153V49.195Zm5 5v279.442c0 4.362 3.803 8.153 8.803 8.153h78.832V54.195h-87.635Zm403.027-5h-2.5v91.129h57.58v10.339h-57.58v91.129h81.37v105.005h92.62V154.2h-20.03V95.945c0-25.955-22.28-46.75-49.45-46.75h-102.01Zm2.5 86.129V54.195h99.51c24.69 0 44.45 18.832 44.45 41.75V159.2h20.03v182.597h-82.62V236.792h-81.37v-81.129h57.58v-20.339h-57.58ZM962.548 49.195h97.632V346.79h-83.829c-7.478 0-13.803-5.754-13.803-13.153V49.195Zm5 5v279.442c0 4.362 3.803 8.153 8.803 8.153h78.829V54.195h-87.632Zm-641.806-5.783h-2.5v91.129h97.635V95.162c0-25.955-22.283-46.75-49.45-46.75h-45.685Zm2.5 86.129V53.412h43.185c24.688 0 44.45 18.832 44.45 41.75v39.379h-87.635Zm-5 14.654h97.635v196.723h-48.184c-27.168 0-49.451-20.795-49.451-46.75V149.195Zm5 5v144.973c0 22.918 19.762 41.75 44.451 41.75h43.184V154.195h-87.635Zm154.443-105c-27.167 0-49.451 20.795-49.451 46.75v205.28c0 25.955 22.284 46.751 49.451 46.751h123.167c27.167 0 49.45-20.796 49.45-46.751v-46.267H531.63V140.21h123.672V95.945c0-25.955-22.283-46.75-49.45-46.75H482.685Zm-44.451 46.75c0-22.918 19.762-41.75 44.451-41.75h123.167c24.688 0 44.45 18.832 44.45 41.75v39.265H526.63v124.748h123.672v41.267c0 22.919-19.762 41.751-44.45 41.751H482.685c-24.689 0-44.451-18.832-44.451-41.751V95.945Z" />
</svg>
